<svg width="208" height="264" viewBox="0 0 208 264" fill="none" xmlns="http://www.w3.org/2000/svg">
<path d="M173.618 61.8327C176.171 63.4297 178.506 65.2797 180.868 67.1452C187.529 72.2965 194.319 77.194 201.297 81.9101C201.979 82.3808 202.661 82.8516 203.364 83.3366C203.969 83.7472 204.574 84.1579 205.198 84.581C206.618 85.8327 206.618 85.8327 207.618 88.8327C203.87 90.9854 200.12 93.1357 196.369 95.2841C195.1 96.0117 193.83 96.7399 192.561 97.4687C184.983 101.821 177.366 106.074 169.658 110.195C165.021 112.693 160.445 115.291 155.868 117.895C153.885 119.019 151.902 120.143 149.919 121.266C148.897 121.845 147.876 122.424 146.823 123.02C141.241 126.177 135.649 129.32 130.055 132.458C129.003 133.049 127.951 133.641 126.867 134.251C113.342 141.833 113.342 141.833 110.618 141.833C110.618 182.093 110.618 222.353 110.618 263.833C105.084 260.144 99.6395 256.471 94.3054 252.52C93.6709 252.052 93.0364 251.584 92.3828 251.102C90.459 249.682 88.538 248.258 86.6179 246.833C86.0184 246.389 85.419 245.945 84.8015 245.487C75.0127 238.228 75.0127 238.228 72.6179 235.833C72.3718 233.697 72.3718 233.697 72.3773 230.999C72.3746 229.978 72.3719 228.957 72.369 227.905C72.3762 226.781 72.3834 225.657 72.3908 224.498C72.3905 223.318 72.3902 222.137 72.3899 220.921C72.3911 217.679 72.4011 214.438 72.4151 211.196C72.4276 207.811 72.4287 204.425 72.4311 201.039C72.4373 194.625 72.4538 188.211 72.4738 181.797C72.4962 174.496 72.5072 167.195 72.5172 159.894C72.5381 144.874 72.5733 129.853 72.6179 114.833C73.3933 114.402 73.3933 114.402 74.1845 113.964C76.5499 112.651 78.9151 111.338 81.2802 110.025C82.0935 109.574 82.9067 109.122 83.7446 108.658C89.3745 105.532 94.9774 102.363 100.555 99.1452C108.848 94.3832 117.191 89.7168 125.555 85.0827C141.955 76.0076 141.955 76.0076 158.118 66.5202C168.629 60.2235 168.629 60.2235 173.618 61.8327Z" fill="white"/>
<path d="M113.618 0.832669C115.338 2.09677 116.995 3.44595 118.618 4.83267C121.404 6.91091 124.233 8.92923 127.055 10.9577C127.842 11.5259 128.629 12.0941 129.44 12.6796C133.246 15.4247 137.062 18.1521 140.911 20.8366C141.561 21.2921 142.21 21.7476 142.88 22.2169C144.1 23.0707 145.325 23.9189 146.553 24.7609C147.944 25.7356 149.287 26.7778 150.618 27.8327C150.618 28.4927 150.618 29.1527 150.618 29.8327C149.73 30.2593 148.841 30.686 147.926 31.1256C137.677 36.1168 127.773 41.6322 117.872 47.278C111.356 50.992 104.803 54.6354 98.2428 58.2702C89.3358 63.2088 80.4391 68.165 71.5553 73.1452C70.5306 73.7189 69.5058 74.2926 68.4501 74.8837C63.6714 77.5592 58.8954 80.2392 54.1256 82.9303C52.4772 83.8562 50.8288 84.782 49.1803 85.7077C48.0616 86.3425 48.0616 86.3425 46.9203 86.9901C41.8444 89.8327 41.8444 89.8327 39.6178 89.8327C39.6178 107.653 39.6178 125.473 39.6178 143.833C36.6983 142.373 34.4074 141.066 31.817 139.18C31.0938 138.656 30.3707 138.132 29.6256 137.592C28.8599 137.032 28.0942 136.472 27.3053 135.895C26.12 135.033 26.12 135.033 24.9108 134.154C23.28 132.967 21.6503 131.778 20.0216 130.589C17.7397 128.922 15.4545 127.26 13.1686 125.598C11.8181 124.614 10.4678 123.63 9.11778 122.645C8.48961 122.188 7.86143 121.731 7.21422 121.261C4.87586 119.548 2.67061 117.886 0.617783 115.833C0.343628 113.569 0.343628 113.569 0.311386 110.712C0.295399 109.644 0.279411 108.576 0.262939 107.476C0.257577 106.317 0.252214 105.159 0.246689 103.965C0.23766 102.779 0.228632 101.593 0.21933 100.371C0.2048 97.8573 0.195934 95.3437 0.192245 92.8302C0.180352 88.9801 0.131192 85.1316 0.0806732 81.2819C0.0712093 78.8431 0.0639741 76.4043 0.0591888 73.9655C0.0396565 72.8112 0.0201242 71.657 0 70.4677C0.0450305 62.5077 0.0450304 62.5076 2.77623 59.289C3.71394 58.8084 4.65165 58.3278 5.61778 57.8327C6.56315 57.2662 7.50852 56.6997 8.48253 56.1161C9.5249 55.5495 10.5673 54.9829 11.6412 54.3991C12.5018 53.9282 12.5018 53.9282 13.3798 53.4478C14.6091 52.7757 15.8396 52.1057 17.0712 51.4376C20.3603 49.6533 23.6407 47.8532 26.9225 46.0553C27.9125 45.5138 27.9125 45.5138 28.9225 44.9614C34.6853 41.806 40.4075 38.582 46.1178 35.3327C52.2939 31.8212 58.4862 28.3429 64.7154 24.9264C65.3266 24.5911 65.9377 24.2557 66.5673 23.9102C69.0558 22.545 71.5444 21.1802 74.035 19.819C80.4885 16.2899 86.8887 12.7114 93.1764 8.89126C94.6883 7.97377 94.6883 7.97377 96.2308 7.03775C98.1058 5.88975 99.9731 4.72896 101.831 3.55337C102.658 3.04613 103.485 2.53888 104.337 2.01626C105.047 1.56823 105.758 1.1202 106.491 0.658597C109.26 -0.41686 110.814 -0.0425195 113.618 0.832669Z" fill="white"/>
</svg>
